<svg width="197" height="32" viewBox="0 0 197 32" fill="none" xmlns="http://www.w3.org/2000/svg">
<g id="Group">
<g id="Group_2">
<path id="Vector" d="M196.109 9.28467H183.218V23.8599H196.109V21.1889H185.809V17.9078H194.105V15.2368H185.809V11.9557H196.109V9.28467ZM178.466 21.0475C178.466 21.1294 178.409 21.1889 178.33 21.1889H169.741C169.662 21.1889 169.605 21.1294 169.605 21.0475V17.9078C169.605 17.8259 169.662 17.7887 169.741 17.7887H178.33C178.409 17.7887 178.466 17.8259 178.466 17.9078V21.0475ZM177.786 11.9557C177.843 11.9557 177.901 12.0152 177.901 12.097V14.954C177.901 15.0359 177.843 15.0954 177.786 15.0954H169.741C169.662 15.0954 169.605 15.0359 169.605 14.954V12.097C169.605 12.0152 169.662 11.9557 169.741 11.9557H177.786ZM180.491 12.097C180.491 10.5421 179.268 9.28467 177.786 9.28467H167.036V23.8599H178.33C179.833 23.8599 181.057 22.6025 181.057 21.0475V17.9078C181.057 17.1786 180.742 16.4718 180.298 15.9882C180.434 15.6832 180.491 15.3409 180.491 14.954V12.097ZM162.247 21.0475C162.247 21.1294 162.19 21.1889 162.133 21.1889H153.523C153.444 21.1889 153.387 21.1294 153.387 21.0475V9.28467H150.817V21.0475C150.817 22.6025 152.027 23.8599 153.523 23.8599H162.133C163.614 23.8599 164.838 22.6025 164.838 21.0475V9.28467H162.247V21.0475ZM148.827 11.9557V9.28467H137.555C136.059 9.28467 134.849 10.5421 134.849 12.097V21.0475C134.849 22.6025 136.059 23.8599 137.555 23.8599H148.827V21.1889H137.555C137.476 21.1889 137.419 21.1294 137.419 21.0475V12.097C137.419 12.0152 137.476 11.9557 137.555 11.9557H148.827ZM124.077 21.0475C124.077 21.1294 124.02 21.1889 123.941 21.1889H115.353C115.274 21.1889 115.217 21.1294 115.217 21.0475V12.097C115.217 12.0152 115.274 11.9557 115.353 11.9557H123.941C124.02 11.9557 124.077 12.0152 124.077 12.097V21.0475ZM112.647 9.28467V23.8599H123.941C125.437 23.8599 126.668 22.6025 126.668 21.0475V12.097C126.668 10.5421 125.444 9.28467 123.941 9.28467H112.647ZM110.622 9.28467H97.7312V23.8599H110.622V21.1889H100.322V17.9078H108.617V15.2368H100.322V11.9557H110.622V9.28467ZM92.9214 21.0475C92.9214 21.1294 92.8642 21.1889 92.7855 21.1889H84.1966C84.1179 21.1889 84.0607 21.1294 84.0607 21.0475V12.097C84.0607 12.0152 84.1179 11.9557 84.1966 11.9557H92.7855C92.8642 11.9557 92.9214 12.0152 92.9214 12.097V21.0475ZM81.4912 9.28467V23.8599H92.7855C94.2885 23.8599 95.5124 22.6025 95.5124 21.0475V12.097C95.5124 10.5421 94.2885 9.28467 92.7855 9.28467H81.4912ZM77.1825 23.8599H79.7519V9.28467H77.1825V23.8599ZM75.0854 12.097C75.0854 10.5421 73.8615 9.28467 72.3799 9.28467H63.7696C62.2737 9.28467 61.0641 10.5421 61.0641 12.097V15.0954C61.0641 16.6578 62.2737 17.9078 63.7696 17.9078H72.3799C72.4371 17.9078 72.4944 17.9673 72.4944 18.0491V21.0475C72.4944 21.1294 72.4371 21.1889 72.3799 21.1889H63.7696C63.6909 21.1889 63.6336 21.1294 63.6336 21.0475V19.9315H61.0641V21.0475C61.0641 22.6025 62.2737 23.8599 63.7696 23.8599H72.3799C73.8615 23.8599 75.0854 22.6025 75.0854 21.0475V18.0491C75.0854 16.4942 73.8615 15.2368 72.3799 15.2368H63.7696C63.6909 15.2368 63.6336 15.1773 63.6336 15.0954V12.097C63.6336 12.0152 63.6909 11.9557 63.7696 11.9557H72.3799C72.4371 11.9557 72.4944 12.0152 72.4944 12.097V13.2131H75.0854V12.097ZM52.3537 12.0747C52.3537 10.5346 51.1441 9.28467 49.6697 9.28467H41.7035C40.222 9.28467 39.0195 10.5421 39.0195 12.0747V13.1238H41.5675V12.0747C41.5675 11.9929 41.6248 11.9334 41.7035 11.9334H49.6697C49.7484 11.9334 49.8056 11.9929 49.8056 12.0747V14.9912C49.8056 15.0508 49.7484 15.1103 49.6697 15.1103H41.4316V17.7664H50.2351C50.2923 17.7664 50.3496 17.8259 50.3496 17.9078V21.0624C50.3496 21.1442 50.2923 21.2038 50.2351 21.2038H41.7035C41.6248 21.2038 41.5675 21.1442 41.5675 21.0624V20.1919H39.0195V21.0624C39.0195 22.6025 40.2291 23.8524 41.7035 23.8524H50.2351C51.7166 23.8524 52.9048 22.5951 52.9048 21.0624V17.9078C52.9048 17.1786 52.6113 16.4942 52.1676 16.0031C52.3035 15.6981 52.3608 15.3558 52.3608 14.9912V12.0747H52.3537Z" fill="white"/>
<g id="Clip path group">
<mask id="mask0_3963_2882" style="mask-type:luminance" maskUnits="userSpaceOnUse" x="39" y="9" width="158" height="15">
<g id="SVGID_2_">
<path id="Vector_2" d="M196.115 9.28455H183.224V23.8598H196.115V21.1888H185.815V17.9077H194.111V15.2367H185.815V11.9556H196.115V9.28455ZM178.472 21.0474C178.472 21.1292 178.415 21.1888 178.336 21.1888H169.747C169.668 21.1888 169.611 21.1292 169.611 21.0474V17.9077C169.611 17.8258 169.668 17.7886 169.747 17.7886H178.336C178.415 17.7886 178.472 17.8258 178.472 17.9077V21.0474ZM177.792 11.9556C177.849 11.9556 177.906 12.0151 177.906 12.0969V14.9539C177.906 15.0358 177.849 15.0953 177.792 15.0953H169.747C169.668 15.0953 169.611 15.0358 169.611 14.9539V12.0969C169.611 12.0151 169.668 11.9556 169.747 11.9556H177.792ZM180.497 12.0969C180.497 10.5419 179.273 9.28455 177.792 9.28455H167.042V23.8598H178.336C179.839 23.8598 181.063 22.6024 181.063 21.0474V17.9077C181.063 17.1785 180.748 16.4717 180.304 15.9881C180.44 15.6831 180.497 15.3408 180.497 14.9539V12.0969ZM162.253 21.0474C162.253 21.1292 162.196 21.1888 162.139 21.1888H153.528C153.45 21.1888 153.393 21.1292 153.393 21.0474V9.28455H150.823V21.0474C150.823 22.6024 152.033 23.8598 153.528 23.8598H162.139C163.62 23.8598 164.844 22.6024 164.844 21.0474V9.28455H162.253V21.0474ZM148.833 11.9556V9.28455H137.56C136.065 9.28455 134.855 10.5419 134.855 12.0969V21.0474C134.855 22.6024 136.065 23.8598 137.56 23.8598H148.833V21.1888H137.56C137.482 21.1888 137.424 21.1292 137.424 21.0474V12.0969C137.424 12.0151 137.482 11.9556 137.56 11.9556H148.833ZM124.083 21.0474C124.083 21.1292 124.026 21.1888 123.947 21.1888H115.358C115.28 21.1888 115.222 21.1292 115.222 21.0474V12.0969C115.222 12.0151 115.28 11.9556 115.358 11.9556H123.947C124.026 11.9556 124.083 12.0151 124.083 12.0969V21.0474ZM112.653 9.28455V23.8598H123.947C125.443 23.8598 126.674 22.6024 126.674 21.0474V12.0969C126.674 10.5419 125.45 9.28455 123.947 9.28455H112.653ZM110.627 9.28455H97.737V23.8598H110.627V21.1888H100.328V17.9077H108.623V15.2367H100.328V11.9556H110.627V9.28455ZM92.9273 21.0474C92.9273 21.1292 92.87 21.1888 92.7913 21.1888H84.2025C84.1238 21.1888 84.0665 21.1292 84.0665 21.0474V12.0969C84.0665 12.0151 84.1238 11.9556 84.2025 11.9556H92.7913C92.87 11.9556 92.9273 12.0151 92.9273 12.0969V21.0474ZM81.497 9.28455V23.8598H92.7913C94.2944 23.8598 95.5183 22.6024 95.5183 21.0474V12.0969C95.5183 10.5419 94.2944 9.28455 92.7913 9.28455H81.497ZM77.1883 23.8598H79.7578V9.28455H77.1883V23.8598ZM75.0912 12.0969C75.0912 10.5419 73.8673 9.28455 72.3857 9.28455H63.7755C62.2796 9.28455 61.07 10.5419 61.07 12.0969V15.0953C61.07 16.6577 62.2796 17.9077 63.7755 17.9077H72.3857C72.443 17.9077 72.5003 17.9672 72.5003 18.049V21.0474C72.5003 21.1292 72.443 21.1888 72.3857 21.1888H63.7755C63.6967 21.1888 63.6395 21.1292 63.6395 21.0474V19.9314H61.07V21.0474C61.07 22.6024 62.2796 23.8598 63.7755 23.8598H72.3857C73.8673 23.8598 75.0912 22.6024 75.0912 21.0474V18.049C75.0912 16.494 73.8673 15.2367 72.3857 15.2367H63.7755C63.6967 15.2367 63.6395 15.1771 63.6395 15.0953V12.0969C63.6395 12.0151 63.6967 11.9556 63.7755 11.9556H72.3857C72.443 11.9556 72.5003 12.0151 72.5003 12.0969V13.2129H75.0912V12.0969ZM52.3595 12.0746C52.3595 10.5345 51.1499 9.28455 49.6755 9.28455H41.7094C40.2278 9.28455 39.0254 10.5419 39.0254 12.0746V13.1237H41.5734V12.0746C41.5734 11.9928 41.6307 11.9332 41.7094 11.9332H49.6755C49.7542 11.9332 49.8115 11.9928 49.8115 12.0746V14.9911C49.8115 15.0506 49.7542 15.1102 49.6755 15.1102H41.4374V17.7663H50.2409C50.2982 17.7663 50.3555 17.8258 50.3555 17.9077V21.0623C50.3555 21.1441 50.2982 21.2036 50.2409 21.2036H41.7094C41.6307 21.2036 41.5734 21.1441 41.5734 21.0623V20.1918H39.0254V21.0623C39.0254 22.6024 40.235 23.8523 41.7094 23.8523H50.2409C51.7225 23.8523 52.9106 22.5949 52.9106 21.0623V17.9077C52.9106 17.1785 52.6172 16.494 52.1734 16.003C52.3094 15.6979 52.3667 15.3557 52.3667 14.9911V12.0746H52.3595Z" fill="white"/>
</g>
</mask>
<g mask="url(#mask0_3963_2882)">
<g id="Group_3">
<path id="Vector_3" d="M203.795 -10.9598H-5.92188V44.3203H203.795V-10.9598Z" fill="white"/>
<g id="Clip path group_2">
<mask id="mask1_3963_2882" style="mask-type:luminance" maskUnits="userSpaceOnUse" x="-6" y="-11" width="210" height="56">
<g id="SVGID_4_">
<path id="Vector_4" d="M203.793 -10.9598H-5.92383V44.3203H203.793V-10.9598Z" fill="white"/>
</g>
</mask>
<g mask="url(#mask1_3963_2882)">
<path id="Vector_5" d="M199.833 5.34033H35.25V27.6979H199.833V5.34033Z" fill="white"/>
</g>
</g>
</g>
</g>
</g>
</g>
<g id="Page-1_16_">
<g id="Emblem-Copy_16_">
<path id="Combined-Shape_16_" d="M16.4054 17.6257C15.6109 17.6257 14.8021 16.9337 14.8021 15.6168L14.9811 5.07417L9.79915 10.2674C9.73474 10.3269 9.65601 10.3715 9.57012 10.3864C9.4055 10.4162 9.24804 10.3492 9.14784 10.2153L9.14068 10.2079C9.0691 10.1111 9.04047 9.99209 9.05479 9.88049L9.37687 7.17229L9.41266 7.05324L9.48423 6.9342L15.2387 0.744013L15.6467 0.319926C15.8686 0.111602 16.1334 0 16.4054 0C16.6702 0 16.935 0.111602 17.1497 0.305045L17.5649 0.736573L23.3265 6.9342L23.3909 7.03092L23.4339 7.16485L23.7631 9.86561C23.7774 9.96233 23.756 10.0665 23.7059 10.1483C23.62 10.3046 23.4554 10.3939 23.2836 10.3715H23.2693C23.1691 10.3641 23.076 10.3195 23.0044 10.2451L17.8368 5.06673L18.0158 15.602C18.0086 16.9337 17.207 17.6257 16.4054 17.6257ZM9.39118 31.9926L1.34634 29.9093L0.788064 29.7531C0.50177 29.6564 0.279893 29.4704 0.143903 29.2323C0.0079137 28.9942 -0.0350302 28.6966 0.0293858 28.4139L0.17969 27.8261L2.47004 19.5452L2.51298 19.4411L2.60603 19.3295L4.69597 17.6852C4.76754 17.6257 4.86059 17.5959 4.95363 17.5959C5.12541 17.5959 5.28287 17.7001 5.35445 17.8638L5.3616 17.8861C5.40455 17.9828 5.4117 18.087 5.39023 18.1837L3.66531 25.4229L12.3686 19.9916C12.748 19.7684 13.1273 19.6494 13.4923 19.6494C14.0721 19.6494 14.5803 19.9396 14.8522 20.4232C15.253 21.1374 15.0813 22.2088 13.979 22.871L5.09678 27.9823L12.0251 30.0432C12.111 30.0656 12.1825 30.1176 12.2398 30.1846C12.3472 30.3111 12.3758 30.4971 12.3114 30.6533V30.6608C12.2684 30.7724 12.1825 30.8617 12.0752 30.9063L9.64885 31.9702L9.53433 32L9.39118 31.9926ZM23.2907 31.9926L23.1762 31.9628L20.757 30.9063C20.6711 30.8691 20.5996 30.8021 20.5495 30.7129C20.4636 30.5566 20.4707 30.3632 20.5709 30.2144L20.5781 30.1995C20.6354 30.1176 20.7213 30.0581 20.8143 30.0284L27.7211 27.9749L18.8389 22.8635C17.7366 22.2013 17.5649 21.13 17.9585 20.4157C18.2305 19.9321 18.7387 19.6419 19.3184 19.6419C19.6906 19.6419 20.0628 19.7535 20.435 19.9767L29.1454 25.408L27.4062 18.1539C27.3847 18.0646 27.3919 17.9754 27.4205 17.8861C27.4778 17.7224 27.6138 17.6108 27.7784 17.5885H27.7927C27.9072 17.5736 28.0146 17.6033 28.1076 17.6777L30.1976 19.322L30.2763 19.4113L30.3336 19.5378L32.6311 27.8112L32.7814 28.3841C32.8458 28.6891 32.8028 28.9793 32.674 29.2248C32.538 29.4629 32.3161 29.6489 32.0513 29.7382L31.4859 29.8944L23.4339 31.9777L23.3194 31.9851L23.2907 31.9926Z" fill="white"/>
</g>
</g>
</g>
</svg>
